<svg width="64" height="64" viewBox="0 0 64 64" fill="none" xmlns="http://www.w3.org/2000/svg">
  <rect width="64" height="64" rx="12" fill="#0a1628"/>
  <circle cx="32" cy="32" r="27" stroke="#e8742a" stroke-width="1.2" fill="none" opacity="0.7"/>
  <path d="M32 6 L33.5 13 L32 11.5 L30.5 13 Z" fill="#e8742a"/>
  <path d="M14 40 L22 26 L27 33 L32 24 L38 35 L44 30 L50 40 Z" fill="#f5f0e8"/>
  <path d="M22 26 L27 33 L32 24 Z" fill="#e8742a" opacity="0.75"/>
  <path d="M10 44 Q18 40 26 44 T42 44 T54 44 L54 50 Q46 46 38 50 T26 50 T10 50 Z" fill="#1a3a5c"/>
  <path d="M12 46 Q20 42 28 46 T44 46 T52 46" stroke="#e8742a" stroke-width="0.8" fill="none" opacity="0.5"/>
  <circle cx="32" cy="38" r="2.5" fill="#e8742a"/>
  <path d="M32 38 L32 29" stroke="#e8742a" stroke-width="1.2" stroke-linecap="round"/>
</svg>
